{"title":"The.Jade.Pussycat.1977.DVDRip.x264.Iou1","uid":8638872,"size":734871587,"categoryP":"porn","categoryS":"movies","magnet":"?xt=urn:btih:e598cc5ab6476fe409e810e4a4f584c13ac9ead2&amp;dn=The.Jade.Pussycat.1977.DVDRip.x264.Iou1&amp;tr=udp%3A%2F%2Ftracker.openbittorrent.com%3A80&amp;tr=udp%3A%2F%2Fopen.demonii.com%3A1337&amp;tr=udp%3A%2F%2Ftracker.coppersurfer.tk%3A6969&amp;tr=udp%3A%2F%2Fexodus.desync.com%3A6969","seeders":0,"leechers":1,"uploader":"jaybee211","files":-1,"time":1372827313,"description":"Format                                   : MPEG-4\nFormat profile                           : Base Media / Version 2\nCodec ID                                 : mp42\nFile size                                : 701 MiB\nDuration                                 : 1h 20mn\nOverall bit rate mode                    : Variable\nOverall bit rate                         : 1 216 Kbps\n\nVideo\nID                                       : 2\nFormat                                   : AVC\nFormat/Info                              : Advanced Video Codec\nFormat profile                           : &lt;a class=&quot;__cf_email__&quot; href=&quot;/cdn-cgi/l/email-protection&quot; data-cfemail=&quot;5c14353b341c106f726c&quot;&gt;[email&amp;#160;protected]&lt;/a&gt;&lt;script cf-hash='f9e31' type=&quot;text/javascript&quot;&gt;\n/* &lt;![CDATA[ */!function(){try{var t=&quot;currentScript&quot;in document?document.currentScript:function(){for(var t=document.getElementsByTagName(&quot;script&quot;),e=t.length;e--;)if(t[e].getAttribute(&quot;cf-hash&quot;))return t[e]}();if(t&amp;&amp;t.previousSibling){var e,r,n,i,c=t.previousSibling,a=c.getAttribute(&quot;data-cfemail&quot;);if(a){for(e=&quot;&quot;,r=parseInt(a.substr(0,2),16),n=2;a.length-n;n+=2)i=parseInt(a.substr(n,2),16)^r,e+=String.fromCharCode(i);e=document.createTextNode(e),c.parentNode.replaceChild(e,c)}}}catch(u){}}();/* ]]&gt; */&lt;/script&gt;\nFormat settings, CABAC                   : Yes\nFormat settings, ReFrames                : 3 frames\nCodec ID                                 : avc1\nCodec ID/Info                            : Advanced Video Coding\nDuration                                 : 1h 20mn\nBit rate mode                            : Variable\nBit rate                                 : 1 149 Kbps\nMaximum bit rate                         : 8 000 Kbps\nWidth                                    : 720 pixels\nHeight                                   : 540 pixels\nDisplay aspect ratio                     : 4:3\nFrame rate mode                          : Constant\nFrame rate                               : 23.976 fps\nStandard                                 : NTSC\nColor space                              : YUV\nChroma subsampling                       : 4:2:0\nBit depth                                : 8 bits\nScan type                                : Progressive\nBits/(Pixel*Frame)                       : 0.123\nStream size                              : 662 MiB (94%)\nWriting library                          : x264 core 112\n\nAudio\nID                                       : 1\nFormat                                   : AAC\nFormat/Info                              : Advanced Audio Codec\nFormat profile                           : LC\nCodec ID                                 : 40\nDuration                                 : 1h 20mn\nBit rate mode                            : Variable\nBit rate                                 : 63.9 Kbps\nMaximum bit rate                         : 576 Kbps\nChannel(s)                               : 2 channels\nChannel positions                        : Front: L R\nSampling rate                            : 48.0 KHz\nCompression mode                         : Lossy\nDelay relative to video                  : 42ms\nStream size                              : 36.8 MiB (5%)\nLangauge                                 : English\n\nIMDB. &lt;a href=&quot; http://www.imdb.com/title/tt0125269/&quot; rel=&quot;nofollow&quot; target=&quot;_NEW&quot;&gt; http://www.imdb.com/title/tt0125269/&lt;/a&gt;\n\nStoryline.\nSan Francisco detective Johnny Wadd searches for a stolen Oriental cat figure made from a priceless jade and comes up against both crime syndicate thugs also after the stature, and a lot of sex obsessed women wanting some action. \n\nCovers. &lt;a href=&quot; http://bayimg.com/LaNAoaAEj&quot; rel=&quot;nofollow&quot; target=&quot;_NEW&quot;&gt; http://bayimg.com/LaNAoaAEj&lt;/a&gt;\n\n        &lt;a href=&quot; http://bayimg.com/lanapAaEj&quot; rel=&quot;nofollow&quot; target=&quot;_NEW&quot;&gt; http://bayimg.com/lanapAaEj&lt;/a&gt;\n\nScreens. &lt;a href=&quot; http://bayimg.com/maNAaAaEJ&quot; rel=&quot;nofollow&quot; target=&quot;_NEW&quot;&gt; http://bayimg.com/maNAaAaEJ&lt;/a&gt;\n\nEnjoy.","torrent":{"xt":"urn:btih:e598cc5ab6476fe409e810e4a4f584c13ac9ead2","amp;dn":"The.Jade.Pussycat.1977.DVDRip.x264.Iou1","amp;tr":["udp%3A%2F%2Ftracker.openbittorrent.com%3A80","udp%3A%2F%2Fopen.demonii.com%3A1337","udp%3A%2F%2Ftracker.coppersurfer.tk%3A6969","udp%3A%2F%2Fexodus.desync.com%3A6969"],"infoHash":"e598cc5ab6476fe409e810e4a4f584c13ac9ead2","infoHashBuffer":{"type":"Buffer","data":[229,152,204,90,182,71,111,228,9,232,16,228,164,245,132,193,58,201,234,210]},"announce":[],"urlList":[]}}